<?xml version="1.0" encoding="UTF-8" standalone="no"?>
<svg width="14" height="15" viewBox="0 0 14 15" fill="none" xmlns="http://www.w3.org/2000/svg">
<g clip-path="url(#clip0_5281_7871)">
<path d="M2.85367 10.1266C4.23453 11.7772 5.89677 13.0768 7.794 13.9964C8.51634 14.3388 9.48236 14.7449 10.5586 14.8145C10.6253 14.8174 10.6892 14.8203 10.7559 14.8203C11.4782 14.8203 12.0584 14.5708 12.5313 14.0574C12.5342 14.0545 12.54 14.0487 12.5429 14.0429C12.7111 13.8398 12.9026 13.657 13.1027 13.4627C13.2391 13.3321 13.3783 13.1958 13.5118 13.0565C14.1297 12.4125 14.1297 11.5945 13.506 10.9707L11.7625 9.22727C11.4666 8.91977 11.1127 8.75732 10.7414 8.75732C10.37 8.75732 10.0132 8.91977 9.70863 9.22437L8.67009 10.2629C8.57436 10.2078 8.47572 10.1585 8.38289 10.1121C8.26685 10.054 8.15952 9.99893 8.06379 9.93801C7.11808 9.33751 6.25939 8.55425 5.43842 7.54762C5.02359 7.02255 4.74509 6.58161 4.55073 6.13196C4.82342 5.88538 5.0787 5.62719 5.32528 5.37481C5.41231 5.28488 5.50224 5.19495 5.59217 5.10502C5.90548 4.79172 6.07373 4.4291 6.07373 4.06068C6.07373 3.69226 5.90838 3.32964 5.59217 3.01633L4.72769 2.15185C4.62615 2.05032 4.53042 1.95168 4.43179 1.85015C4.24033 1.65289 4.04016 1.44982 3.8429 1.26706C3.5441 0.974063 3.19308 0.820312 2.82176 0.820312C2.45334 0.820312 2.09942 0.974063 1.78902 1.26996L0.704061 2.35492C0.309531 2.74945 0.0861575 3.2281 0.0397422 3.78219C-0.015376 4.47551 0.112266 5.21236 0.442975 6.10295C0.950643 7.4809 1.71649 8.76022 2.85367 10.1266ZM0.747576 3.84311C0.782387 3.45728 0.930336 3.13527 1.20883 2.85678L2.28798 1.77763C2.45624 1.61517 2.6419 1.53105 2.82176 1.53105C2.99872 1.53105 3.17858 1.61517 3.34393 1.78343C3.5383 1.96329 3.72106 2.15185 3.91832 2.35202C4.01695 2.45355 4.11849 2.55508 4.22002 2.65952L5.08451 3.524C5.26436 3.70386 5.3572 3.88662 5.3572 4.06648C5.3572 4.24634 5.26436 4.4291 5.08451 4.60896C4.99458 4.69889 4.90465 4.79172 4.81472 4.88165C4.54493 5.15434 4.29254 5.41252 4.01405 5.6591C4.00825 5.6649 4.00535 5.66781 3.99955 5.67361C3.75877 5.91439 3.79648 6.14356 3.8545 6.31762C3.8574 6.32632 3.8603 6.33212 3.8632 6.34083C4.08658 6.8775 4.39698 7.38807 4.88144 7.99727C5.75173 9.07062 6.66843 9.9032 7.67796 10.5443C7.8027 10.6255 7.93614 10.6894 8.06089 10.7532C8.17692 10.8112 8.28426 10.8663 8.37999 10.9272C8.39159 10.933 8.4003 10.9388 8.4119 10.9446C8.50763 10.994 8.60046 11.0172 8.69329 11.0172C8.92537 11.0172 9.07622 10.8692 9.12554 10.8199L10.2105 9.73494C10.3787 9.56669 10.5615 9.47676 10.7414 9.47676C10.9618 9.47676 11.1417 9.6131 11.2548 9.73494L13.0041 11.4813C13.3522 11.8294 13.3493 12.2066 12.9954 12.575C12.8736 12.7055 12.7459 12.8303 12.6096 12.9608C12.4065 13.1581 12.1947 13.3611 12.0033 13.5903C11.6697 13.95 11.2722 14.1183 10.7588 14.1183C10.7095 14.1183 10.6572 14.1154 10.6079 14.1125C9.65641 14.0516 8.77162 13.6802 8.1073 13.364C6.30291 12.4908 4.71898 11.2521 3.40485 9.67982C2.32279 8.3773 1.59465 7.1647 1.1131 5.86507C0.814298 5.06731 0.70116 4.4262 0.747576 3.84311Z" fill="#F9B45A"/>
</g>
<defs>
<clipPath id="clip0_5281_7871">
<rect width="14" height="14" fill="white" transform="translate(0 0.820312)"/>
</clipPath>
</defs>
</svg>
