<?xml version="1.0" encoding="UTF-8" standalone="no"?>
<svg width="16" height="17" viewBox="0 0 16 17" fill="none" xmlns="http://www.w3.org/2000/svg">
<g clip-path="url(#clip0_5281_1829)">
<path d="M6.59363 5.41895C2.9751 5.41895 3.29092e-05 7.90729 3.29092e-05 10.966C3.29092e-05 12.1887 0.474283 13.4313 1.344 14.3944L0.115845 15.7978C-0.00499834 15.9361 -0.0343108 16.1324 0.0421579 16.3C0.118158 16.4675 0.284783 16.5751 0.468783 16.5751H7.06238C9.7341 16.5751 13.1872 14.2745 13.1872 10.966C13.1872 7.90729 10.2122 5.41895 6.59363 5.41895ZM3.74994 11.8252C3.23313 11.8252 2.81247 11.4045 2.81247 10.8877C2.81247 10.3709 3.23316 9.95026 3.74994 9.95026C4.26672 9.95026 4.68741 10.3709 4.68741 10.8877C4.68744 11.4045 4.26675 11.8252 3.74994 11.8252ZM6.59363 11.8252C6.07681 11.8252 5.65616 11.4045 5.65616 10.8877C5.65616 10.3709 6.07685 9.95026 6.59363 9.95026C7.11041 9.95026 7.5311 10.3709 7.5311 10.8877C7.5311 11.4045 7.11044 11.8252 6.59363 11.8252ZM9.43731 11.8252C8.9205 11.8252 8.49985 11.4045 8.49985 10.8877C8.49985 10.3709 8.92053 9.95026 9.43731 9.95026C9.95409 9.95026 10.3748 10.3709 10.3748 10.8877C10.3748 11.4045 9.95413 11.8252 9.43731 11.8252Z" fill="white"/>
<path d="M15.8866 10.1136L14.7829 8.82597C15.5707 7.93703 15.9997 6.85303 15.9997 5.73156C15.9996 2.88847 13.2659 0.575439 9.90603 0.575439C6.86775 0.575439 4.28647 2.46885 3.83069 4.93325C4.67844 4.64519 5.62916 4.48144 6.59363 4.48144C10.6984 4.48144 14.0708 7.34847 14.1201 10.8877H15.5309C15.9313 10.8877 16.1463 10.4162 15.8866 10.1136Z" fill="white"/>
</g>
<defs>
<clipPath id="clip0_5281_1829">
<rect width="16" height="16" fill="white" transform="translate(0 0.575195)"/>
</clipPath>
</defs>
</svg>
