<?xml version="1.0" encoding="UTF-8" standalone="no"?>
<svg width="14" height="14" viewBox="0 0 14 14" fill="none" xmlns="http://www.w3.org/2000/svg">
<path d="M6.99975 0C3.14037 0 0 3.14012 0 7C0 10.8599 3.14037 14 6.99975 14C10.8599 14 13.9997 10.8599 13.9997 7C13.9997 3.14012 10.8599 0 6.99975 0ZM6.99975 13.0667C3.65467 13.0667 0.933283 10.3453 0.933283 7C0.933283 3.65467 3.65492 0.933283 6.99975 0.933283C10.3453 0.933283 13.0665 3.65467 13.0665 7C13.0665 10.3453 10.3456 13.0667 6.99975 13.0667Z" fill="#FAB55A"/>
<path d="M10.468 6.49213H7.46794V2.52536C7.46794 2.26758 7.25895 2.05859 7.00142 2.05859C6.74415 2.05859 6.53516 2.26783 6.53516 2.52536V7.42516H10.468C10.7255 7.42516 10.9345 7.21642 10.9342 6.95864C10.9342 6.70112 10.725 6.49213 10.468 6.49213Z" fill="#FAB55A"/>
</svg>
