<svg width="14" height="14" viewBox="0 0 14 14" fill="none" xmlns="http://www.w3.org/2000/svg">
<g clip-path="url(#clip0_5281_7998)">
<path d="M12.7695 1.84766H1.23047C0.552836 1.84766 0 2.39989 0 3.07812V11.2812C0 11.9572 0.550375 12.5117 1.23047 12.5117H12.7695C13.4455 12.5117 14 11.9613 14 11.2812V3.07812C14 2.40219 13.4496 1.84766 12.7695 1.84766ZM12.5996 2.66797L7.02609 8.24153L1.40435 2.66797H12.5996ZM0.820312 11.1114V3.24407L4.77091 7.16079L0.820312 11.1114ZM1.40036 11.6914L5.35344 7.73832L6.73859 9.11158C6.89894 9.27056 7.15769 9.27003 7.31738 9.11032L8.66797 7.75973L12.5996 11.6914H1.40036ZM13.1797 11.1114L9.24801 7.17969L13.1797 3.24798V11.1114Z" fill="#F9B45A"/>
</g>
<defs>
<clipPath id="clip0_5281_7998">
<rect width="14" height="14" fill="white"/>
</clipPath>
</defs>
</svg>
