<svg width="14" height="14" viewBox="0 0 14 14" fill="none" xmlns="http://www.w3.org/2000/svg">
<g clip-path="url(#clip0_5281_8008)">
<path d="M13.0303 0.945312H0.969748C0.435057 0.945312 0 1.38037 0 1.91506V10.0974C0 10.6321 0.435057 11.0672 0.969748 11.0672H8.00241L7.79007 12.3622C7.75011 12.606 7.83074 12.8268 8.00579 12.9528C8.18079 13.0788 8.41564 13.0856 8.63425 12.9704L10.1515 12.1717C10.1939 12.15 10.3105 12.15 10.3529 12.1717L11.8702 12.9704C11.9739 13.025 12.0815 13.0522 12.1845 13.0522C12.2984 13.0522 12.4068 13.0189 12.4987 12.9527C12.6737 12.8267 12.7543 12.6058 12.7144 12.3621L12.5021 11.0671H13.0303C13.565 11.0671 14.0001 10.632 14.0001 10.0974V1.91506C14 1.38031 13.5649 0.945312 13.0303 0.945312ZM10.2522 9.40495C9.32033 9.40495 8.5621 8.64672 8.5621 7.71482C8.5621 6.78292 9.32033 6.02469 10.2522 6.02469C11.1841 6.02469 11.9424 6.78292 11.9424 7.71482C11.9424 8.64672 11.1841 9.40495 10.2522 9.40495ZM10.74 11.4362C10.4574 11.2874 10.047 11.2874 9.76442 11.4362L8.69171 12.0008L9.03273 9.92064C9.39442 10.1214 9.81013 10.2361 10.2523 10.2361C10.6944 10.2361 11.1101 10.1213 11.4718 9.92064L11.6047 10.7316C11.6051 10.733 11.6052 10.7344 11.6054 10.7357L11.8129 12.0009L10.74 11.4362ZM13.1688 10.0974C13.1688 10.1725 13.1053 10.2359 13.0303 10.2359H12.3658L12.214 9.31003C12.2134 9.30637 12.2124 9.30288 12.2117 9.29922C12.5627 8.866 12.7736 8.31462 12.7736 7.71482C12.7736 6.32453 11.6426 5.19347 10.2523 5.19347C8.862 5.19347 7.73094 6.32453 7.73094 7.71482C7.73094 8.31462 7.94185 8.86588 8.2929 9.29922C8.29218 9.30282 8.29118 9.30637 8.29057 9.30997L8.13868 10.2367C8.13402 10.2365 8.12953 10.2359 8.12488 10.2359H0.969748C0.894662 10.2359 0.831212 10.1725 0.831212 10.0974V1.91506C0.831212 1.83997 0.894662 1.77653 0.969748 1.77653H13.0303C13.1053 1.77653 13.1688 1.83997 13.1688 1.91506V10.0974Z" fill="#FAB55A"/>
<path d="M11.5606 3.33594H2.14022C1.91063 3.33594 1.72461 3.52196 1.72461 3.75154C1.72461 3.98112 1.91063 4.16715 2.14022 4.16715H11.5606C11.7902 4.16715 11.9762 3.98112 11.9762 3.75154C11.9762 3.52196 11.7902 3.33594 11.5606 3.33594Z" fill="#FAB55A"/>
<path d="M6.13003 5.58984H2.14022C1.91063 5.58984 1.72461 5.77587 1.72461 6.00545C1.72461 6.23502 1.91063 6.42105 2.14022 6.42105H6.13003C6.35961 6.42105 6.54564 6.23502 6.54564 6.00545C6.54564 5.77587 6.35961 5.58984 6.13003 5.58984Z" fill="#FAB55A"/>
</g>
<defs>
<clipPath id="clip0_5281_8008">
<rect width="14" height="14" fill="white"/>
</clipPath>
</defs>
</svg>
