<?xml version="1.0" encoding="UTF-8" standalone="no"?>
<svg width="16" height="17" viewBox="0 0 16 17" fill="none" xmlns="http://www.w3.org/2000/svg">
<g clip-path="url(#clip0_5281_1812)">
<path d="M13.7862 11.7113C12.8196 10.8846 11.8387 10.3838 10.884 11.2093L10.3139 11.7082C9.89684 12.0703 9.12135 13.7624 6.12303 10.3133C3.12533 6.86852 4.90921 6.33217 5.32693 5.97314L5.90012 5.47363C6.84982 4.64631 6.49142 3.60483 5.80646 2.53275L5.39311 1.88338C4.70504 0.813803 3.95577 0.111364 3.00357 0.937433L2.48908 1.38699C2.06824 1.69357 0.891885 2.6901 0.606539 4.58325C0.263124 6.85478 1.34644 9.45599 3.82839 12.3101C6.30722 15.1654 8.73423 16.5996 11.0332 16.5747C12.9439 16.5541 14.0977 15.5288 14.4586 15.156L14.975 14.7059C15.9247 13.8804 15.3347 13.04 14.3675 12.2114L13.7862 11.7113Z" fill="white"/>
</g>
<defs>
<clipPath id="clip0_5281_1812">
<rect width="16" height="16" fill="white" transform="translate(0 0.575195)"/>
</clipPath>
</defs>
</svg>
