<svg width="14" height="15" viewBox="0 0 14 15" fill="none" xmlns="http://www.w3.org/2000/svg">
<g clip-path="url(#clip0_5281_7984)">
<path d="M11.1864 2.37493C10.068 1.25654 8.58104 0.640625 6.99942 0.640625C5.4178 0.640625 3.93079 1.25654 2.81243 2.37493C1.69404 3.49335 1.07812 4.98031 1.07812 6.5619C1.07812 9.76145 4.10338 12.4227 5.72867 13.8524C5.95453 14.0511 6.14957 14.2226 6.30497 14.3678C6.49966 14.5497 6.74955 14.6406 6.99939 14.6406C7.24928 14.6406 7.49913 14.5497 7.69384 14.3678C7.84923 14.2226 8.04428 14.0511 8.27014 13.8524C9.89542 12.4227 12.9207 9.76145 12.9207 6.5619C12.9207 4.98031 12.3048 3.49335 11.1864 2.37493ZM7.72846 13.2367C7.49765 13.4397 7.29834 13.615 7.134 13.7685C7.05851 13.839 6.94027 13.839 6.86475 13.7685C6.70044 13.615 6.5011 13.4397 6.2703 13.2366C4.74233 11.8925 1.89816 9.39061 1.89816 6.56193C1.89816 3.74912 4.18654 1.46075 6.99936 1.46075C9.81216 1.46075 12.1005 3.74912 12.1005 6.56193C12.1006 9.39061 9.25643 11.8925 7.72846 13.2367Z" fill="#F9B45A"/>
<path d="M7.00007 3.73047C5.56121 3.73047 4.39062 4.90103 4.39062 6.33989C4.39062 7.77875 5.56121 8.94931 7.00007 8.94931C8.43893 8.94931 9.60949 7.77875 9.60949 6.33989C9.60949 4.90103 8.43893 3.73047 7.00007 3.73047ZM7.00007 8.12918C6.01343 8.12918 5.21072 7.32648 5.21072 6.33986C5.21072 5.35324 6.01343 4.55054 7.00007 4.55054C7.98672 4.55054 8.7894 5.35324 8.7894 6.33986C8.7894 7.32648 7.98672 8.12918 7.00007 8.12918Z" fill="#F9B45A"/>
</g>
<defs>
<clipPath id="clip0_5281_7984">
<rect width="14" height="14" fill="white" transform="translate(0 0.640625)"/>
</clipPath>
</defs>
</svg>
