<svg width="14" height="14" viewBox="0 0 14 14" fill="none" xmlns="http://www.w3.org/2000/svg">
<path d="M14 5.2C14 5.75228 13.5523 6.2 13 6.2C12.4477 6.2 12 5.75228 12 5.2V3.41421L6.70711 8.70711L5.29289 7.29289L10.5858 2L8.8 2C8.24771 2 7.8 1.55228 7.8 1C7.8 0.447715 8.24772 -2.41411e-08 8.8 0L13 1.83588e-07C13.5523 2.07729e-07 14 0.447715 14 1V5.2Z" fill="#1C65AD"/>
<path d="M14 11V8.00001H12V11C12 11.5523 11.5523 12 11 12L3 12C2.44772 12 2 11.5523 2 11L2 3.00001C2 2.44773 2.44772 2.00001 3 2.00001L6 2.00001V1.41827e-05L3 1.40516e-05C1.34315 1.39792e-05 4.22115e-07 1.34316 3.49691e-07 3.00001L0 11C-7.24234e-08 12.6569 1.34315 14 3 14L11 14C12.6569 14 14 12.6569 14 11Z" fill="#1C65AD"/>
</svg>
