<svg width="252" height="210" id="a" xmlns="http://www.w3.org/2000/svg" viewBox="0 0 204 162"><defs><style>.b,.c{fill:none;}.d{fill:#fff;}.e{fill:#232426;}.f{fill:#873eff;fill-rule:evenodd;}.c{stroke:#b4bbc3;stroke-dasharray:0 0 5 5;stroke-linecap:round;stroke-width:2px;}</style></defs><path class="c" d="M36.5,90v23c0,2.21,1.79,4,4,4h31.5"/><path class="c" d="M170,69v-23c0-2.21-1.79-4-4-4h-31.5"/><g><rect class="d" width="132" height="90" rx="4" ry="4"/><rect class="b" x="17" y="16" width="98" height="58"/></g><g><rect class="d" x="72" y="72" width="132" height="90" rx="4" ry="4"/><path class="e" d="M177,143H99v-52h78l-16.37,26,16.37,26Z"/></g><g><path class="f" d="M55.66,30.11c-2.82,0-4.66,.92-6.3,4l-7.48,14.11v-12.54c0-3.74-1.77-5.58-5.05-5.58s-4.66,1.12-6.3,4.27l-7.09,13.85v-12.41c0-4-1.64-5.71-5.65-5.71H9.64c-3.09,0-4.79,1.44-4.79,4.07s1.64,4.2,4.66,4.2h3.35v15.82c0,4.46,3.02,7.09,7.35,7.09s6.3-1.71,8.47-5.71l4.73-8.86v7.48c0,4.4,2.89,7.09,7.29,7.09s6.04-1.51,8.53-5.71l10.9-18.38c2.36-4,.72-7.09-4.53-7.09h.07Z"/><path class="f" d="M76.15,30.11c-8.93,0-15.69,6.63-15.69,15.62s6.83,15.56,15.69,15.56,15.62-6.63,15.69-15.56c0-8.99-6.83-15.62-15.69-15.62Zm0,21.6c-3.35,0-5.65-2.49-5.65-5.97s2.3-6.04,5.65-6.04,5.65,2.56,5.65,6.04-2.23,5.97-5.65,5.97Z"/><path class="f" d="M109.69,30.11c-8.86,0-15.69,6.63-15.69,15.62s6.83,15.56,15.69,15.56,15.69-6.63,15.69-15.56-6.83-15.62-15.69-15.62Zm0,21.6c-3.41,0-5.58-2.49-5.58-5.97s2.23-6.04,5.58-6.04,5.65,2.56,5.65,6.04-2.23,5.97-5.65,5.97Z"/></g></svg>